<?xml version="1.0" standalone="no"?><!-- Generator: Gravit.io --><svg xmlns="http://www.w3.org/2000/svg" xmlns:xlink="http://www.w3.org/1999/xlink" style="isolation:isolate" viewBox="0 0 504 504" width="504" height="504"><defs><clipPath id="_clipPath_mXaeh2P9FkTMBX5e3dXZOsa2YihHLOFl"><rect width="504" height="504"/></clipPath></defs><g clip-path="url(#_clipPath_mXaeh2P9FkTMBX5e3dXZOsa2YihHLOFl)"><path d=" M 0 252 C 0 112.917 112.917 0 252 0 C 391.083 0 504 112.917 504 252 C 504 391.083 391.083 504 252 504 C 112.917 504 0 391.083 0 252 Z " fill="rgb(185,185,185)"/><g id="AmbisonicLogo"><path d=" M 407.245 252 C 407.245 166.212 337.641 96.667 251.781 96.667 C 165.92 96.667 96.317 166.212 96.317 252 C 96.317 337.788 165.92 407.333 251.781 407.333 C 337.641 407.333 407.245 337.788 407.245 252 Z  M 251.343 252 C 251.343 209.226 216.639 174.552 173.83 174.552 C 131.02 174.552 96.317 209.226 96.317 252 C 96.317 294.773 131.02 329.448 173.83 329.448 C 216.639 329.448 251.343 294.773 251.343 252 L 251.343 252 Z  M 407.245 252 C 407.245 209.226 372.542 174.552 329.733 174.552 C 286.922 174.552 252.219 209.226 252.219 252 C 252.219 294.895 287.021 329.667 329.951 329.667 C 372.882 329.667 407.683 294.895 407.683 252 L 407.245 252 Z  M 329.294 329.885 C 329.294 287.112 294.59 252.437 251.781 252.437 C 208.971 252.437 174.268 287.112 174.268 329.885 C 174.268 372.659 208.971 407.333 251.781 407.333 C 294.59 407.333 329.294 372.659 329.294 329.885 L 329.294 329.885 Z  M 329.294 174.114 C 329.294 131.341 294.59 96.667 251.781 96.667 C 208.971 96.667 174.268 131.341 174.268 174.114 C 174.268 216.888 208.971 251.563 251.781 251.563 C 294.59 251.563 329.294 216.888 329.294 174.114 L 329.294 174.114 Z  M 329.513 252 C 329.513 209.106 294.711 174.333 251.781 174.333 C 208.85 174.333 174.049 209.106 174.049 252 C 174.049 294.895 208.85 329.667 251.781 329.667 C 294.711 329.667 329.513 294.895 329.513 252 Z " fill-rule="evenodd" fill="rgb(0,0,0)" vector-effect="non-scaling-stroke" stroke-width="1.333" stroke="rgb(0,0,0)" stroke-linejoin="miter" stroke-linecap="butt" stroke-miterlimit="4"/></g></g></svg>