<?xml version="1.0" standalone="no"?><!-- Generator: Gravit.io --><svg xmlns="http://www.w3.org/2000/svg" xmlns:xlink="http://www.w3.org/1999/xlink" style="isolation:isolate" viewBox="0 0 1133.858 693.801" width="1133.858" height="693.801"><defs><clipPath id="_clipPath_2N6vL7TvndFvythdZ9EtJeMEmFoCsk56"><rect width="1133.858" height="693.801"/></clipPath></defs><g clip-path="url(#_clipPath_2N6vL7TvndFvythdZ9EtJeMEmFoCsk56)"><clipPath id="_clipPath_5LFxLWI2rAtrgWMyRVBZdAQfPjKEvEVM"><rect x="556.838" y="-15.061" width="321" height="542.75" transform="matrix(1,0,0,1,0,0)" fill="rgb(255,255,255)"/></clipPath><g clip-path="url(#_clipPath_5LFxLWI2rAtrgWMyRVBZdAQfPjKEvEVM)"><g id="Group"><g id="Group"><linearGradient id="_lgradient_35" x1="0%" y1="50%" x2="100%" y2="50%"><stop offset="56.95652173913044%" stop-opacity="0" style="stop-color:rgb(0,148,157)"/><stop offset="85.21739130434783%" stop-opacity="1" style="stop-color:rgb(0,143,152)"/></linearGradient><path d=" M 366.459 271.075 C 366.459 137.638 474.793 29.304 608.23 29.304 C 741.666 29.304 850 137.638 850 271.075 C 850 404.511 741.666 512.845 608.23 512.845 C 474.793 512.845 366.459 404.511 366.459 271.075 Z " fill="none" vector-effect="non-scaling-stroke" stroke-width="0.949" stroke="url(#_lgradient_35)" stroke-linejoin="miter" stroke-linecap="square" stroke-miterlimit="3"/><linearGradient id="_lgradient_36" x1="0%" y1="50%" x2="100%" y2="50%"><stop offset="55.21739130434783%" stop-opacity="0" style="stop-color:rgb(0,148,157)"/><stop offset="76.95652173913044%" stop-opacity="1" style="stop-color:rgb(0,140,148)"/></linearGradient><path d=" M 369.923 271.075 C 369.923 137.638 476.705 29.304 608.23 29.304 C 739.755 29.304 846.536 137.638 846.536 271.075 C 846.536 404.511 739.755 512.845 608.23 512.845 C 476.705 512.845 369.923 404.511 369.923 271.075 Z " fill="none" vector-effect="non-scaling-stroke" stroke-width="0.949" stroke="url(#_lgradient_36)" stroke-linejoin="miter" stroke-linecap="square" stroke-miterlimit="3"/><linearGradient id="_lgradient_37" x1="0%" y1="50%" x2="100%" y2="50%"><stop offset="50%" stop-opacity="0" style="stop-color:rgb(0,148,157)"/><stop offset="80.43478260869566%" stop-opacity="1" style="stop-color:rgb(0,144,153)"/></linearGradient><path d=" M 375.647 271.075 C 375.647 137.638 479.864 29.304 608.23 29.304 C 736.596 29.304 840.813 137.638 840.813 271.075 C 840.813 404.511 736.596 512.845 608.23 512.845 C 479.864 512.845 375.647 404.511 375.647 271.075 Z " fill="none" vector-effect="non-scaling-stroke" stroke-width="0.949" stroke="url(#_lgradient_37)" stroke-linejoin="miter" stroke-linecap="square" stroke-miterlimit="3"/><linearGradient id="_lgradient_38" x1="0%" y1="50%" x2="100%" y2="50%"><stop offset="43.04347826086957%" stop-opacity="0" style="stop-color:rgb(0,148,157)"/><stop offset="74.78260869565217%" stop-opacity="1" style="stop-color:rgb(0,143,152)"/></linearGradient><path d=" M 385.822 271.075 C 385.822 137.638 485.479 29.304 608.23 29.304 C 730.98 29.304 830.638 137.638 830.638 271.075 C 830.638 404.511 730.98 512.845 608.23 512.845 C 485.479 512.845 385.822 404.511 385.822 271.075 Z " fill="none" vector-effect="non-scaling-stroke" stroke-width="0.949" stroke="url(#_lgradient_38)" stroke-linejoin="miter" stroke-linecap="square" stroke-miterlimit="3"/><linearGradient id="_lgradient_39" x1="0%" y1="50%" x2="100%" y2="50%"><stop offset="43.913043478260875%" stop-opacity="0" style="stop-color:rgb(0,148,157)"/><stop offset="71.73913043478261%" stop-opacity="1" style="stop-color:rgb(0,143,152)"/></linearGradient><path d=" M 397.268 271.075 C 397.268 137.638 491.797 29.304 608.23 29.304 C 724.662 29.304 819.191 137.638 819.191 271.075 C 819.191 404.511 724.662 512.845 608.23 512.845 C 491.797 512.845 397.268 404.511 397.268 271.075 Z " fill="none" vector-effect="non-scaling-stroke" stroke-width="0.949" stroke="url(#_lgradient_39)" stroke-linejoin="miter" stroke-linecap="square" stroke-miterlimit="3"/><linearGradient id="_lgradient_40" x1="0%" y1="50%" x2="100%" y2="50%"><stop offset="43.913043478260875%" stop-opacity="0" style="stop-color:rgb(0,148,157)"/><stop offset="68.26086956521739%" stop-opacity="1" style="stop-color:rgb(0,143,152)"/><stop offset="100%" stop-opacity="1" style="stop-color:rgb(0,143,152)"/></linearGradient><path d=" M 409.987 271.075 C 409.987 137.638 498.817 29.304 608.23 29.304 C 717.643 29.304 806.472 137.638 806.472 271.075 C 806.472 404.511 717.643 512.845 608.23 512.845 C 498.817 512.845 409.987 404.511 409.987 271.075 Z " fill="none" vector-effect="non-scaling-stroke" stroke-width="0.949" stroke="url(#_lgradient_40)" stroke-linejoin="miter" stroke-linecap="square" stroke-miterlimit="3"/><linearGradient id="_lgradient_41" x1="0%" y1="50%" x2="100%" y2="50%"><stop offset="35.65217391304348%" stop-opacity="0" style="stop-color:rgb(0,148,157)"/><stop offset="72.17391304347827%" stop-opacity="1" style="stop-color:rgb(0,144,153)"/></linearGradient><path d=" M 424.614 271.075 C 424.614 137.638 506.889 29.304 608.23 29.304 C 709.57 29.304 791.846 137.638 791.846 271.075 C 791.846 404.511 709.57 512.845 608.23 512.845 C 506.889 512.845 424.614 404.511 424.614 271.075 Z " fill="none" vector-effect="non-scaling-stroke" stroke-width="0.949" stroke="url(#_lgradient_41)" stroke-linejoin="miter" stroke-linecap="square" stroke-miterlimit="3"/><linearGradient id="_lgradient_42" x1="0%" y1="50%" x2="100%" y2="50%"><stop offset="43.47826086956522%" stop-opacity="0" style="stop-color:rgb(0,148,157)"/><stop offset="72.17391304347827%" stop-opacity="1" style="stop-color:rgb(0,143,151)"/></linearGradient><path d=" M 443.691 271.075 C 443.691 137.638 517.419 29.304 608.23 29.304 C 699.041 29.304 772.768 137.638 772.768 271.075 C 772.768 404.511 699.041 512.845 608.23 512.845 C 517.419 512.845 443.691 404.511 443.691 271.075 Z " fill="none" vector-effect="non-scaling-stroke" stroke-width="0.949" stroke="url(#_lgradient_42)" stroke-linejoin="miter" stroke-linecap="square" stroke-miterlimit="3"/><linearGradient id="_lgradient_43" x1="0%" y1="50%" x2="100%" y2="50%"><stop offset="42.173913043478265%" stop-opacity="0" style="stop-color:rgb(0,148,157)"/><stop offset="76.08695652173914%" stop-opacity="1" style="stop-color:rgb(0,143,152)"/></linearGradient><path d=" M 470.401 271.075 C 470.401 137.638 532.16 29.304 608.23 29.304 C 684.3 29.304 746.059 137.638 746.059 271.075 C 746.059 404.511 684.3 512.845 608.23 512.845 C 532.16 512.845 470.401 404.511 470.401 271.075 Z " fill="none" vector-effect="non-scaling-stroke" stroke-width="0.949" stroke="url(#_lgradient_43)" stroke-linejoin="miter" stroke-linecap="square" stroke-miterlimit="3"/><linearGradient id="_lgradient_44" x1="0%" y1="50%" x2="100%" y2="50%"><stop offset="61.73913043478261%" stop-opacity="0" style="stop-color:rgb(0,148,157)"/><stop offset="76.95652173913044%" stop-opacity="0.71" style="stop-color:rgb(0,142,151)"/></linearGradient><path d=" M 504.741 271.075 C 504.741 137.638 551.113 29.304 608.23 29.304 C 665.347 29.304 711.718 137.638 711.718 271.075 C 711.718 404.511 665.347 512.845 608.23 512.845 C 551.113 512.845 504.741 404.511 504.741 271.075 Z " fill="none" vector-effect="non-scaling-stroke" stroke-width="0.949" stroke="url(#_lgradient_44)" stroke-linejoin="miter" stroke-linecap="square" stroke-miterlimit="3"/><linearGradient id="_lgradient_45" x1="0%" y1="50%" x2="100%" y2="50%"><stop offset="63.47826086956522%" stop-opacity="0" style="stop-color:rgb(0,148,157)"/><stop offset="80%" stop-opacity="0.54" style="stop-color:rgb(0,142,151)"/></linearGradient><path d=" M 542.897 271.075 C 542.897 137.638 572.172 29.304 608.23 29.304 C 644.288 29.304 673.563 137.638 673.563 271.075 C 673.563 404.511 644.288 512.845 608.23 512.845 C 572.172 512.845 542.897 404.511 542.897 271.075 Z " fill="none" vector-effect="non-scaling-stroke" stroke-width="0.949" stroke="url(#_lgradient_45)" stroke-linejoin="miter" stroke-linecap="square" stroke-miterlimit="3"/><linearGradient id="_lgradient_46" x1="0%" y1="50%" x2="100%" y2="50%"><stop offset="64.78260869565217%" stop-opacity="0" style="stop-color:rgb(0,148,157)"/><stop offset="100%" stop-opacity="0.32" style="stop-color:rgb(0,144,153)"/></linearGradient><path d=" M 584.868 271.075 C 584.868 137.638 595.336 29.304 608.23 29.304 C 621.123 29.304 631.591 137.638 631.591 271.075 C 631.591 404.511 621.123 512.845 608.23 512.845 C 595.336 512.845 584.868 404.511 584.868 271.075 Z " fill="none" vector-effect="non-scaling-stroke" stroke-width="0.949" stroke="url(#_lgradient_46)" stroke-linejoin="miter" stroke-linecap="square" stroke-miterlimit="3"/></g><g id="Group"><linearGradient id="_lgradient_47" x1="50.0573432747248%" y1="62.656667418573086%" x2="50.057343274724786%" y2="-0.057343274724797055%"><stop offset="14.347826086956522%" stop-opacity="0" style="stop-color:rgb(0,148,157)"/><stop offset="39.130434782608695%" stop-opacity="1" style="stop-color:rgb(0,142,151)"/><stop offset="100%" stop-opacity="1" style="stop-color:rgb(0,142,151)"/></linearGradient><path d=" M 608.23 29.304 C 741.666 29.304 850 137.638 850 271.075 C 850 404.511 741.666 512.845 608.23 512.845 C 474.793 512.845 366.459 404.511 366.459 271.075 C 366.459 137.638 474.793 29.304 608.23 29.304 Z " fill="none" vector-effect="non-scaling-stroke" stroke-width="0.949" stroke="url(#_lgradient_47)" stroke-linejoin="miter" stroke-linecap="square" stroke-miterlimit="3"/><linearGradient id="_lgradient_48" x1="50.223201193230736%" y1="58.26484757517615%" x2="50.22320119323073%" y2="0.4392196371160728%"><stop offset="7.391304347826087%" stop-opacity="0" style="stop-color:rgb(0,148,157)"/><stop offset="46.08695652173913%" stop-opacity="1" style="stop-color:rgb(0,142,151)"/><stop offset="100%" stop-opacity="1" style="stop-color:rgb(0,142,151)"/></linearGradient><path d=" M 608.23 32.768 C 741.666 32.768 850 139.55 850 271.075 C 850 402.599 741.666 509.381 608.23 509.381 C 474.793 509.381 366.459 402.599 366.459 271.075 C 366.459 139.55 474.793 32.768 608.23 32.768 Z " fill="none" vector-effect="non-scaling-stroke" stroke-width="0.949" stroke="url(#_lgradient_48)" stroke-linejoin="miter" stroke-linecap="square" stroke-miterlimit="3"/><linearGradient id="_lgradient_49" x1="49.90904502526444%" y1="62.03540523835629%" x2="49.90904502526443%" y2="0.4816778864955129%"><stop offset="13.478260869565217%" stop-opacity="0" style="stop-color:rgb(0,148,157)"/><stop offset="39.130434782608695%" stop-opacity="1" style="stop-color:rgb(0,142,151)"/><stop offset="100%" stop-opacity="1" style="stop-color:rgb(0,142,151)"/></linearGradient><path d=" M 608.23 38.492 C 741.666 38.492 850 142.709 850 271.075 C 850 399.441 741.666 503.657 608.23 503.657 C 474.793 503.657 366.459 399.441 366.459 271.075 C 366.459 142.709 474.793 38.492 608.23 38.492 Z " fill="none" vector-effect="non-scaling-stroke" stroke-width="0.949" stroke="url(#_lgradient_49)" stroke-linejoin="miter" stroke-linecap="square" stroke-miterlimit="3"/><linearGradient id="_lgradient_50" x1="50.08331710352978%" y1="61.54297541954141%" x2="50.083317103529765%" y2="0.4816778864955684%"><stop offset="16.52173913043478%" stop-opacity="0" style="stop-color:rgb(0,148,157)"/><stop offset="48.69565217391305%" stop-opacity="1" style="stop-color:rgb(0,142,151)"/><stop offset="97.82608695652173%" stop-opacity="1" style="stop-color:rgb(0,142,151)"/></linearGradient><path d=" M 608.23 48.667 C 741.666 48.667 850 148.324 850 271.075 C 850 393.825 741.666 493.483 608.23 493.483 C 474.793 493.483 366.459 393.825 366.459 271.075 C 366.459 148.324 474.793 48.667 608.23 48.667 Z " fill="none" vector-effect="non-scaling-stroke" stroke-width="0.949" stroke="url(#_lgradient_50)" stroke-linejoin="miter" stroke-linecap="square" stroke-miterlimit="3"/><linearGradient id="_lgradient_51" x1="49.99378041612517%" y1="61.050545600726515%" x2="49.99378041612516%" y2="0.5637495229646738%"><stop offset="13.043478260869565%" stop-opacity="0" style="stop-color:rgb(0,148,157)"/><stop offset="53.47826086956522%" stop-opacity="1" style="stop-color:rgb(0,142,151)"/><stop offset="100%" stop-opacity="1" style="stop-color:rgb(0,142,151)"/></linearGradient><path d=" M 608.23 60.113 C 741.666 60.113 850 154.642 850 271.075 C 850 387.507 741.666 482.036 608.23 482.036 C 474.793 482.036 366.459 387.507 366.459 271.075 C 366.459 154.642 474.793 60.113 608.23 60.113 Z " fill="none" vector-effect="non-scaling-stroke" stroke-width="0.949" stroke="url(#_lgradient_51)" stroke-linejoin="miter" stroke-linecap="square" stroke-miterlimit="3"/><linearGradient id="_lgradient_52" x1="49.99338138677599%" y1="61.70711869247971%" x2="49.99338138677597%" y2="0.6458211594338237%"><stop offset="12.608695652173912%" stop-opacity="0" style="stop-color:rgb(0,148,157)"/><stop offset="56.086956521739125%" stop-opacity="1" style="stop-color:rgb(0,142,151)"/><stop offset="100%" stop-opacity="1" style="stop-color:rgb(0,142,151)"/></linearGradient><path d=" M 608.23 72.832 C 741.666 72.832 850 161.661 850 271.075 C 850 380.488 741.666 469.317 608.23 469.317 C 474.793 469.317 366.459 380.488 366.459 271.075 C 366.459 161.661 474.793 72.832 608.23 72.832 Z " fill="none" vector-effect="non-scaling-stroke" stroke-width="0.949" stroke="url(#_lgradient_52)" stroke-linejoin="miter" stroke-linecap="square" stroke-miterlimit="3"/><linearGradient id="_lgradient_53" x1="49.99999999999997%" y1="57.122395227153035%" x2="49.999999999999964%" y2="-7.703342694905125%"><stop offset="4.782608695652174%" stop-opacity="0" style="stop-color:rgb(0,148,157)"/><stop offset="39.565217391304344%" stop-opacity="1" style="stop-color:rgb(0,142,151)"/><stop offset="86.52173913043478%" stop-opacity="1" style="stop-color:rgb(0,142,151)"/></linearGradient><path d=" M 608.23 87.458 C 741.666 87.458 850 169.734 850 271.075 C 850 372.415 741.666 454.691 608.23 454.691 C 474.793 454.691 366.459 372.415 366.459 271.075 C 366.459 169.734 474.793 87.458 608.23 87.458 Z " fill="none" vector-effect="non-scaling-stroke" stroke-width="0.949" stroke="url(#_lgradient_53)" stroke-linejoin="miter" stroke-linecap="square" stroke-miterlimit="3"/><linearGradient id="_lgradient_54" x1="49.999999999999986%" y1="54.035687725979045%" x2="49.99999999999997%" y2="1.4371724431868405%"><stop offset="3.4782608695652173%" stop-opacity="0" style="stop-color:rgb(0,148,157)"/><stop offset="36.52173913043478%" stop-opacity="1" style="stop-color:rgb(0,142,151)"/><stop offset="100%" stop-opacity="1" style="stop-color:rgb(0,142,151)"/></linearGradient><path d=" M 608.23 106.536 C 741.666 106.536 850 180.263 850 271.075 C 850 361.886 741.666 435.613 608.23 435.613 C 474.793 435.613 366.459 361.886 366.459 271.075 C 366.459 180.263 474.793 106.536 608.23 106.536 Z " fill="none" vector-effect="non-scaling-stroke" stroke-width="0.949" stroke="url(#_lgradient_54)" stroke-linejoin="miter" stroke-linecap="square" stroke-miterlimit="3"/><linearGradient id="_lgradient_55" x1="50.000000000000135%" y1="54.117017723078995%" x2="50.000000000000036%" y2="3.3670995327140685%"><stop offset="0%" stop-opacity="0" style="stop-color:rgb(0,143,152)"/><stop offset="49.56521739130435%" stop-opacity="1" style="stop-color:rgb(0,148,157)"/><stop offset="100%" stop-opacity="1" style="stop-color:rgb(0,148,157)"/></linearGradient><path d=" M 608.23 132.819 C 741.666 132.819 850 194.579 850 270.649 C 850 346.718 741.666 408.478 608.23 408.478 C 474.793 408.478 366.459 346.718 366.459 270.649 C 366.459 194.579 474.793 132.819 608.23 132.819 Z " fill="none" vector-effect="non-scaling-stroke" stroke-width="0.949" stroke="url(#_lgradient_55)" stroke-linejoin="miter" stroke-linecap="square" stroke-miterlimit="3"/><linearGradient id="_lgradient_56" x1="50%" y1="59.220475041100485%" x2="50.000000000000085%" y2="2.432421078009994%"><stop offset="13.91304347826087%" stop-opacity="0" style="stop-color:rgb(0,148,157)"/><stop offset="44.78260869565218%" stop-opacity="1" style="stop-color:rgb(0,142,151)"/><stop offset="100%" stop-opacity="1" style="stop-color:rgb(0,142,151)"/></linearGradient><path d=" M 608.23 167.586 C 741.666 167.586 850 213.958 850 271.075 C 850 328.192 741.666 374.563 608.23 374.563 C 474.793 374.563 366.459 328.192 366.459 271.075 C 366.459 213.958 474.793 167.586 608.23 167.586 Z " fill="none" vector-effect="non-scaling-stroke" stroke-width="0.949" stroke="url(#_lgradient_56)" stroke-linejoin="miter" stroke-linecap="square" stroke-miterlimit="3"/><linearGradient id="_lgradient_57" x1="50%" y1="53.80503995222674%" x2="49.999999999999986%" y2="-1.4412064272917635%"><stop offset="3.91304347826087%" stop-opacity="0" style="stop-color:rgb(0,148,157)"/><stop offset="46.52173913043478%" stop-opacity="1" style="stop-color:rgb(0,142,151)"/><stop offset="97.3913043478261%" stop-opacity="1" style="stop-color:rgb(0,142,151)"/></linearGradient><path d=" M 608.23 205.742 C 741.666 205.742 850 235.016 850 271.075 C 850 307.133 741.666 336.407 608.23 336.407 C 474.793 336.407 366.459 307.133 366.459 271.075 C 366.459 235.016 474.793 205.742 608.23 205.742 Z " fill="none" vector-effect="non-scaling-stroke" stroke-width="1" stroke="url(#_lgradient_57)" stroke-linejoin="miter" stroke-linecap="square" stroke-miterlimit="3"/><linearGradient id="_lgradient_58" x1="50%" y1="-1.158742883841472%" x2="50.000000000000014%" y2="52.14342977286631%"><stop offset="2.1739130434782608%" stop-opacity="1" style="stop-color:rgb(0,148,157)"/><stop offset="22.382908585735724%" stop-opacity="1" style="stop-color:rgb(0,142,151)"/><stop offset="59.9566647644799%" stop-opacity="1" style="stop-color:rgb(0,148,156)"/><stop offset="100%" stop-opacity="0" style="stop-color:rgb(0,255,255)"/></linearGradient><path d=" M 608.23 247.713 C 741.666 247.713 850 258.181 850 271.075 C 850 283.968 741.666 294.436 608.23 294.436 C 474.793 294.436 366.459 283.968 366.459 271.075 C 366.459 258.181 474.793 247.713 608.23 247.713 Z " fill="none" vector-effect="non-scaling-stroke" stroke-width="1" stroke="url(#_lgradient_58)" stroke-linejoin="miter" stroke-linecap="square" stroke-miterlimit="3"/></g></g></g><path d="M 570.507 652.885 L 569.953 651.298 C 569.697 650.568 568.898 650.183 568.168 650.438 L 490.001 677.75 C 489.271 678.005 488.885 678.805 489.14 679.535 L 489.695 681.122 C 489.95 681.852 490.749 682.238 491.48 681.982 L 569.646 654.67 C 570.377 654.415 570.762 653.615 570.507 652.885 Z" style="stroke:none;fill:#FFFFFF;stroke-miterlimit:10;"/><path d="M 570.507 652.885 L 569.953 651.298 C 569.697 650.568 568.898 650.183 568.168 650.438 L 490.001 677.75 C 489.271 678.005 488.885 678.805 489.14 679.535 L 489.695 681.122 C 489.95 681.852 490.749 682.238 491.48 681.982 L 569.646 654.67 C 570.377 654.415 570.762 653.615 570.507 652.885 Z" style="fill:none;stroke:#000000;stroke-width:0.6;stroke-linecap:square;stroke-miterlimit:3;"/><path d=" M 529.824 304.015 C 529.824 289.305 541.766 277.363 556.476 277.363 C 571.185 277.363 583.127 289.305 583.127 304.015 C 583.127 318.724 571.185 330.667 556.476 330.667 C 541.766 330.667 529.824 318.724 529.824 304.015 Z " fill="none" vector-effect="non-scaling-stroke" stroke-width="0.6" stroke-dasharray="0" stroke="rgb(0,0,0)" stroke-linejoin="miter" stroke-linecap="square" stroke-miterlimit="3"/><g id="Group"><path d=" M 546.012 304.245 C 546.027 303.312 545.893 302.552 545.712 302.549 C 545.531 302.546 545.372 303.301 545.357 304.235 C 545.342 305.168 545.476 305.928 545.657 305.931 C 545.838 305.934 545.997 305.178 546.012 304.245 Z " fill="rgb(235,235,235)" vector-effect="non-scaling-stroke" stroke-width="0.4" stroke="rgb(0,0,0)" stroke-linejoin="miter" stroke-linecap="square" stroke-miterlimit="3"/><path d=" M 544.767 304.562 C 544.767 297.879 550.193 292.453 556.876 292.453 C 563.559 292.453 568.985 297.879 568.985 304.562 C 568.985 311.246 563.559 316.671 556.876 316.671 C 550.193 316.671 544.767 311.246 544.767 304.562 Z " fill="rgb(237,140,1)" vector-effect="non-scaling-stroke" stroke-width="0.4" stroke="rgb(0,0,0)" stroke-linejoin="miter" stroke-linecap="square" stroke-miterlimit="3"/><path d=" M 554.496 307.845 C 554.496 306.674 555.446 305.724 556.617 305.724 C 557.788 305.724 558.739 306.674 558.739 307.845 C 558.739 309.016 557.788 309.967 556.617 309.967 C 555.446 309.967 554.496 309.016 554.496 307.845 Z " fill="rgb(235,235,235)" vector-effect="non-scaling-stroke" stroke-width="0.4" stroke="rgb(0,0,0)" stroke-linejoin="miter" stroke-linecap="square" stroke-miterlimit="3"/><path d=" M 554.857 314.181 C 554.857 313.699 555.692 313.308 556.719 313.308 C 557.747 313.308 558.581 313.699 558.581 314.181 C 558.581 314.663 557.747 315.054 556.719 315.054 C 555.692 315.054 554.857 314.663 554.857 314.181 Z " fill="rgb(235,235,235)" vector-effect="non-scaling-stroke" stroke-width="0.4" stroke="rgb(0,0,0)" stroke-linejoin="miter" stroke-linecap="square" stroke-miterlimit="3"/><path d=" M 555.047 293.482 C 555.047 293.247 555.793 293.057 556.711 293.057 C 557.63 293.057 558.376 293.247 558.376 293.482 C 558.376 293.717 557.63 293.907 556.711 293.907 C 555.793 293.907 555.047 293.717 555.047 293.482 Z " fill="rgb(235,235,235)" vector-effect="non-scaling-stroke" stroke-width="0.4" stroke="rgb(0,0,0)" stroke-linejoin="miter" stroke-linecap="square" stroke-miterlimit="3"/><path d=" M 548.976 311.536 C 548.381 310.83 548.172 310.026 548.51 309.742 C 548.847 309.457 549.604 309.798 550.199 310.504 C 550.794 311.209 551.003 312.013 550.665 312.298 C 550.328 312.582 549.571 312.241 548.976 311.536 Z " fill="rgb(235,235,235)" vector-effect="non-scaling-stroke" stroke-width="0.4" stroke="rgb(0,0,0)" stroke-linejoin="miter" stroke-linecap="square" stroke-miterlimit="3"/><path d=" M 564.278 311.536 C 564.873 310.83 565.082 310.026 564.744 309.742 C 564.407 309.457 563.65 309.798 563.055 310.504 C 562.46 311.209 562.251 312.013 562.589 312.298 C 562.926 312.582 563.683 312.241 564.278 311.536 Z " fill="rgb(235,235,235)" vector-effect="non-scaling-stroke" stroke-width="0.4" stroke="rgb(0,0,0)" stroke-linejoin="miter" stroke-linecap="square" stroke-miterlimit="3"/><path d=" M 563.111 297.385 C 562.488 296.704 562.246 295.909 562.572 295.611 C 562.898 295.313 563.668 295.623 564.291 296.303 C 564.915 296.984 565.156 297.779 564.831 298.077 C 564.505 298.375 563.734 298.065 563.111 297.385 Z " fill="rgb(235,235,235)" vector-effect="non-scaling-stroke" stroke-width="0.4" stroke="rgb(0,0,0)" stroke-linejoin="miter" stroke-linecap="square" stroke-miterlimit="3"/><path d=" M 550.212 297.385 C 550.836 296.704 551.077 295.909 550.752 295.611 C 550.426 295.313 549.655 295.623 549.032 296.303 C 548.409 296.984 548.167 297.779 548.493 298.077 C 548.819 298.375 549.589 298.065 550.212 297.385 Z " fill="rgb(235,235,235)" vector-effect="non-scaling-stroke" stroke-width="0.4" stroke="rgb(0,0,0)" stroke-linejoin="miter" stroke-linecap="square" stroke-miterlimit="3"/><path d=" M 554.628 298.997 C 554.628 298.056 555.468 297.292 556.502 297.292 C 557.536 297.292 558.376 298.056 558.376 298.997 C 558.376 299.938 557.536 300.702 556.502 300.702 C 555.468 300.702 554.628 299.938 554.628 298.997 Z " fill="rgb(235,235,235)" vector-effect="non-scaling-stroke" stroke-width="0.4" stroke="rgb(0,0,0)" stroke-linejoin="miter" stroke-linecap="square" stroke-miterlimit="3"/><path d=" M 561.64 303.679 C 561.58 302.686 562.167 301.842 562.951 301.794 C 563.735 301.747 564.421 302.514 564.481 303.507 C 564.541 304.5 563.953 305.344 563.169 305.392 C 562.385 305.439 561.7 304.672 561.64 303.679 Z " fill="rgb(235,235,235)" vector-effect="non-scaling-stroke" stroke-width="0.4" stroke="rgb(0,0,0)" stroke-linejoin="miter" stroke-linecap="square" stroke-miterlimit="3"/><path d=" M 567.706 304.245 C 567.691 303.312 567.826 302.552 568.007 302.549 C 568.188 302.546 568.347 303.301 568.362 304.235 C 568.377 305.168 568.242 305.928 568.062 305.931 C 567.881 305.934 567.722 305.178 567.706 304.245 Z " fill="rgb(235,235,235)" vector-effect="non-scaling-stroke" stroke-width="0.4" stroke="rgb(0,0,0)" stroke-linejoin="miter" stroke-linecap="square" stroke-miterlimit="3"/><path d=" M 551.56 303.679 C 551.62 302.686 551.032 301.842 550.248 301.794 C 549.464 301.747 548.779 302.514 548.719 303.507 C 548.659 304.5 549.247 305.344 550.031 305.392 C 550.814 305.439 551.5 304.672 551.56 303.679 Z " fill="rgb(235,235,235)" vector-effect="non-scaling-stroke" stroke-width="0.4" stroke="rgb(0,0,0)" stroke-linejoin="miter" stroke-linecap="square" stroke-miterlimit="3"/><path d=" M 558.258 316.064 C 559.303 331.585 560.374 340.38 561.46 342.437 L 561.46 372.12 C 557.969 373.133 554.805 373.135 551.963 372.12 L 551.963 342.437 C 553.697 339.564 554.127 330.788 555.599 316.064 L 558.258 316.064 Z " fill="rgb(237,140,1)" vector-effect="non-scaling-stroke" stroke-width="0.6" stroke="rgb(0,0,0)" stroke-linejoin="miter" stroke-linecap="square" stroke-miterlimit="3"/><path d="M 548.618 345.377 L 565.134 345.377 C 565.52 345.377 565.833 345.691 565.833 346.076 L 565.833 349.033 C 565.833 349.419 565.52 349.732 565.134 349.732 L 548.618 349.732 C 548.232 349.732 547.919 349.419 547.919 349.033 L 547.919 346.076 C 547.919 345.691 548.232 345.377 548.618 345.377 Z" style="stroke:none;fill:#FFFFFF;stroke-linecap:square;stroke-miterlimit:3;"/><path d="M 548.618 345.377 L 565.134 345.377 C 565.52 345.377 565.833 345.691 565.833 346.076 L 565.833 349.033 C 565.833 349.419 565.52 349.732 565.134 349.732 L 548.618 349.732 C 548.232 349.732 547.919 349.419 547.919 349.033 L 547.919 346.076 C 547.919 345.691 548.232 345.377 548.618 345.377 Z" style="fill:none;stroke:#000000;stroke-width:0.6;stroke-linecap:square;stroke-miterlimit:3;"/><path d=" M 556.127 319.256 C 556.127 318.842 556.462 318.506 556.876 318.506 C 557.29 318.506 557.625 318.842 557.625 319.256 C 557.625 319.669 557.29 320.005 556.876 320.005 C 556.462 320.005 556.127 319.669 556.127 319.256 Z " fill="none" vector-effect="non-scaling-stroke" stroke-width="0.6" stroke="rgb(0,0,0)" stroke-linejoin="miter" stroke-linecap="square" stroke-miterlimit="3"/></g><rect x="581.696" y="274.807" width="5.33" height="106.664" transform="matrix(1,0,0,1,0,0)" fill="rgb(0,148,157)" vector-effect="non-scaling-stroke" stroke-width="0.6" stroke="rgb(0,0,0)" stroke-linejoin="miter" stroke-linecap="square" stroke-miterlimit="3"/><path d="M 581.508 351.171 L 587.215 351.171 C 587.643 351.171 587.991 351.518 587.991 351.946 L 587.991 529.627 C 587.991 530.055 587.643 530.402 587.215 530.402 L 581.508 530.402 C 581.08 530.402 580.732 530.055 580.732 529.627 L 580.732 351.946 C 580.732 351.518 581.08 351.171 581.508 351.171 Z" style="stroke:none;fill:#00949D;stroke-linecap:square;stroke-miterlimit:3;"/><path d="M 581.508 351.171 L 587.215 351.171 C 587.643 351.171 587.991 351.518 587.991 351.946 L 587.991 529.627 C 587.991 530.055 587.643 530.402 587.215 530.402 L 581.508 530.402 C 581.08 530.402 580.732 530.055 580.732 529.627 L 580.732 351.946 C 580.732 351.518 581.08 351.171 581.508 351.171 Z" style="fill:none;stroke:#000000;stroke-width:0.6;stroke-linecap:square;stroke-miterlimit:3;"/><path d="M 580.818 359.699 L 587.905 359.699 C 588.363 359.699 588.736 360.072 588.736 360.53 L 588.736 529.571 C 588.736 530.03 588.363 530.402 587.905 530.402 L 580.818 530.402 C 580.36 530.402 579.987 530.03 579.987 529.571 L 579.987 360.53 C 579.987 360.072 580.36 359.699 580.818 359.699 Z" style="stroke:none;fill:#00949D;stroke-linecap:square;stroke-miterlimit:3;"/><path d="M 580.818 359.699 L 587.905 359.699 C 588.363 359.699 588.736 360.072 588.736 360.53 L 588.736 529.571 C 588.736 530.03 588.363 530.402 587.905 530.402 L 580.818 530.402 C 580.36 530.402 579.987 530.03 579.987 529.571 L 579.987 360.53 C 579.987 360.072 580.36 359.699 580.818 359.699 Z" style="fill:none;stroke:#000000;stroke-width:0.6;stroke-linecap:square;stroke-miterlimit:3;"/><g id="Group"><path d=" M 569.221 208.125 L 568.82 175.788 C 568.469 174.158 566.121 174.22 565.73 175.788 L 565.272 208.125 L 569.221 208.125 Z " fill="rgb(0,148,157)" vector-effect="non-scaling-stroke" stroke-width="0.6" stroke="rgb(0,0,0)" stroke-linejoin="miter" stroke-linecap="square" stroke-miterlimit="3"/><path d=" M 554.855 225.965 C 554.855 223.234 555.931 221.017 557.256 221.017 C 558.581 221.017 559.657 223.234 559.657 225.965 C 559.657 228.696 558.581 230.913 557.256 230.913 C 555.931 230.913 554.855 228.696 554.855 225.965 Z " fill="rgb(235,235,235)" vector-effect="non-scaling-stroke" stroke-width="0.6" stroke="rgb(0,0,0)" stroke-linejoin="miter" stroke-linecap="square" stroke-miterlimit="3"/><path d=" M 609.066 225.892 C 609.066 223.161 610.142 220.944 611.467 220.944 C 612.792 220.944 613.868 223.161 613.868 225.892 C 613.868 228.623 612.792 230.84 611.467 230.84 C 610.142 230.84 609.066 228.623 609.066 225.892 Z " fill="rgb(235,235,235)" vector-effect="non-scaling-stroke" stroke-width="0.6" stroke="rgb(0,0,0)" stroke-linejoin="miter" stroke-linecap="square" stroke-miterlimit="3"/><path d=" M 603.388 208.125 L 602.987 175.788 C 602.636 174.158 600.288 174.22 599.897 175.788 L 599.439 208.125 L 603.388 208.125 Z " fill="rgb(0,148,157)" vector-effect="non-scaling-stroke" stroke-width="0.6" stroke="rgb(0,0,0)" stroke-linejoin="miter" stroke-linecap="square" stroke-miterlimit="3"/><path d=" M 573.265 252.743 C 580.782 256.012 588.183 256.015 595.458 252.743 L 598.717 244.868 L 606.329 243.78 C 614.841 232.078 614.844 220.196 606.329 208.125 L 598.717 207.152 L 595.458 199.109 C 588.025 195.975 580.63 195.978 573.265 199.109 L 570.216 207.152 L 562.316 208.125 C 554.249 219.806 554.252 231.694 562.316 243.78 L 570.216 244.868 L 573.265 252.743 Z " fill="rgb(0,148,157)" vector-effect="non-scaling-stroke" stroke-width="0.6" stroke="rgb(0,0,0)" stroke-linejoin="miter" stroke-linecap="square" stroke-miterlimit="3"/><path d=" M 564.969 225.892 C 564.969 222.599 567.056 219.925 569.626 219.925 C 572.197 219.925 574.283 222.599 574.283 225.892 C 574.283 229.185 572.197 231.859 569.626 231.859 C 567.056 231.859 564.969 229.185 564.969 225.892 Z " fill="rgb(235,235,235)" vector-effect="non-scaling-stroke" stroke-width="0.6" stroke="rgb(0,0,0)" stroke-linejoin="miter" stroke-linecap="square" stroke-miterlimit="3"/><path d=" M 594.803 225.892 C 594.803 222.599 596.89 219.925 599.46 219.925 C 602.031 219.925 604.117 222.599 604.117 225.892 C 604.117 229.185 602.031 231.859 599.46 231.859 C 596.89 231.859 594.803 229.185 594.803 225.892 Z " fill="rgb(235,235,235)" vector-effect="non-scaling-stroke" stroke-width="0.6" stroke="rgb(0,0,0)" stroke-linejoin="miter" stroke-linecap="square" stroke-miterlimit="3"/><path d=" M 578.896 254.828 Q 577.54 255.141 577.208 256.401 C 576.768 258.073 576.408 260.848 576.211 264.532 C 576.145 265.762 576.04 267.827 575.751 268.877 C 575.387 270.199 575.058 270.432 574.628 270.508 C 574.035 270.614 572.51 270.508 571.429 270.169 C 570.365 269.836 569.671 269.566 569.671 269.068 C 569.671 268.569 570.434 268.242 570.984 268.051 C 571.776 267.777 572.867 267.577 573.908 267.437 Q 574.597 267.344 575.878 267.267" fill="none" vector-effect="non-scaling-stroke" stroke-width="0.6" stroke="rgb(0,0,0)" stroke-linejoin="miter" stroke-linecap="square" stroke-miterlimit="3"/><path d=" M 589.686 254.828 Q 591.042 255.141 591.373 256.401 C 591.813 258.073 592.174 260.848 592.37 264.532 C 592.436 265.762 592.541 267.827 592.83 268.877 C 593.194 270.199 593.523 270.432 593.953 270.508 C 594.546 270.614 596.072 270.508 597.152 270.169 C 598.216 269.836 598.91 269.566 598.91 269.068 C 598.91 268.569 598.148 268.242 597.597 268.051 C 596.806 267.777 595.714 267.577 594.673 267.437 Q 593.985 267.344 592.703 267.267" fill="none" vector-effect="non-scaling-stroke" stroke-width="0.6" stroke="rgb(0,0,0)" stroke-linejoin="miter" stroke-linecap="square" stroke-miterlimit="3"/><path d=" M 569.678 269.178 L 569.678 272.877 C 575.076 275.544 593.737 275.354 598.981 272.877 L 598.981 269.178" fill="none" vector-effect="non-scaling-stroke" stroke-width="0.6" stroke="rgb(0,0,0)" stroke-linejoin="miter" stroke-linecap="square" stroke-miterlimit="3"/><path d=" M 578.554 214.235 L 578.554 221.499 C 582.657 221.077 586.701 221.08 590.678 221.499 L 590.678 214.235 C 586.681 213.777 582.642 213.78 578.554 214.235 Z " fill="rgb(255,255,255)" vector-effect="non-scaling-stroke" stroke-width="0.6" stroke="rgb(0,0,0)" stroke-linejoin="miter" stroke-linecap="square" stroke-miterlimit="3"/><path d="M 587.059 227.152 L 587.059 227.152 C 588.036 227.152 588.829 227.945 588.829 228.922 L 588.829 233.175 C 588.829 234.152 588.036 234.945 587.059 234.945 L 587.059 234.945 C 586.083 234.945 585.29 234.152 585.29 233.175 L 585.29 228.922 C 585.29 227.945 586.083 227.152 587.059 227.152 Z" style="stroke:none;fill:#FFFFFF;stroke-linecap:square;stroke-miterlimit:3;"/><path d="M 587.059 227.152 L 587.059 227.152 C 588.036 227.152 588.829 227.945 588.829 228.922 L 588.829 233.175 C 588.829 234.152 588.036 234.945 587.059 234.945 L 587.059 234.945 C 586.083 234.945 585.29 234.152 585.29 233.175 L 585.29 228.922 C 585.29 227.945 586.083 227.152 587.059 227.152 Z" style="fill:none;stroke:#000000;stroke-width:0.6;stroke-linecap:square;stroke-miterlimit:3;"/><path d=" M 580.192 228.864 C 580.192 227.919 580.959 227.152 581.903 227.152 C 582.848 227.152 583.615 227.919 583.615 228.864 C 583.615 229.809 582.848 230.576 581.903 230.576 C 580.959 230.576 580.192 229.809 580.192 228.864 Z " fill="rgb(255,255,255)" vector-effect="non-scaling-stroke" stroke-width="0.6" stroke="rgb(0,0,0)" stroke-linejoin="miter" stroke-linecap="butt" stroke-miterlimit="3"/><path d=" M 580.192 233.571 C 580.192 232.626 580.959 231.859 581.903 231.859 C 582.848 231.859 583.615 232.626 583.615 233.571 C 583.615 234.515 582.848 235.282 581.903 235.282 C 580.959 235.282 580.192 234.515 580.192 233.571 Z " fill="rgb(255,255,255)" vector-effect="non-scaling-stroke" stroke-width="0.6" stroke="rgb(0,0,0)" stroke-linejoin="miter" stroke-linecap="butt" stroke-miterlimit="3"/><path d=" M 585.348 238.541 C 585.348 237.597 586.115 236.83 587.059 236.83 C 588.004 236.83 588.771 237.597 588.771 238.541 C 588.771 239.486 588.004 240.253 587.059 240.253 C 586.115 240.253 585.348 239.486 585.348 238.541 Z " fill="rgb(255,255,255)" vector-effect="non-scaling-stroke" stroke-width="0.6" stroke="rgb(0,0,0)" stroke-linejoin="miter" stroke-linecap="butt" stroke-miterlimit="3"/></g><g id="Group"><rect x="570.741" y="358.587" width="3.869" height="115.872" transform="matrix(1,0,0,1,0,0)" fill="rgb(237,140,1)" vector-effect="non-scaling-stroke" stroke-width="0.6" stroke="rgb(0,0,0)" stroke-linejoin="miter" stroke-linecap="square" stroke-miterlimit="3"/><path d="M 570.141 342.518 L 575.21 342.518 C 575.945 342.518 576.541 343.115 576.541 343.85 L 576.541 357.256 C 576.541 357.991 575.945 358.587 575.21 358.587 L 570.141 358.587 C 569.406 358.587 568.81 357.991 568.81 357.256 L 568.81 343.85 C 568.81 343.115 569.406 342.518 570.141 342.518 Z" style="stroke:none;fill:#FFFFFF;stroke-linecap:square;stroke-miterlimit:3;"/><path d="M 570.141 342.518 L 575.21 342.518 C 575.945 342.518 576.541 343.115 576.541 343.85 L 576.541 357.256 C 576.541 357.991 575.945 358.587 575.21 358.587 L 570.141 358.587 C 569.406 358.587 568.81 357.991 568.81 357.256 L 568.81 343.85 C 568.81 343.115 569.406 342.518 570.141 342.518 Z" style="fill:none;stroke:#000000;stroke-width:0.6;stroke-linecap:square;stroke-miterlimit:3;"/><path d="M 567.504 344.514 L 567.504 344.514 C 568.225 344.514 568.81 345.099 568.81 345.82 L 568.81 349.754 C 568.81 350.475 568.225 351.06 567.504 351.06 L 567.504 351.06 C 566.783 351.06 566.198 350.475 566.198 349.754 L 566.198 345.82 C 566.198 345.099 566.783 344.514 567.504 344.514 Z" style="stroke:none;fill:#FFFFFF;stroke-linecap:square;stroke-miterlimit:3;"/><path d="M 567.504 344.514 L 567.504 344.514 C 568.225 344.514 568.81 345.099 568.81 345.82 L 568.81 349.754 C 568.81 350.475 568.225 351.06 567.504 351.06 L 567.504 351.06 C 566.783 351.06 566.198 350.475 566.198 349.754 L 566.198 345.82 C 566.198 345.099 566.783 344.514 567.504 344.514 Z" style="fill:none;stroke:#000000;stroke-width:0.6;stroke-linecap:square;stroke-miterlimit:3;"/></g><g id="Group"><rect x="569.989" y="474.459" width="5.469" height="177.168" transform="matrix(1,0,0,1,0,0)" fill="rgb(237,140,1)" vector-effect="non-scaling-stroke" stroke-width="0.6" stroke="rgb(0,0,0)" stroke-linejoin="miter" stroke-linecap="square" stroke-miterlimit="3"/></g><path d="M 583.366 582.84 L 585.047 582.833 C 585.82 582.831 586.45 583.456 586.453 584.23 L 586.753 667.03 C 586.756 667.803 586.13 668.434 585.357 668.436 L 583.676 668.442 C 582.903 668.445 582.273 667.82 582.27 667.046 L 581.97 584.246 C 581.967 583.472 582.593 582.842 583.366 582.84 Z" style="stroke:none;fill:#FFFFFF;stroke-linecap:square;stroke-miterlimit:3;"/><path d="M 583.366 582.84 L 585.047 582.833 C 585.82 582.831 586.45 583.456 586.453 584.23 L 586.753 667.03 C 586.756 667.803 586.13 668.434 585.357 668.436 L 583.676 668.442 C 582.903 668.445 582.273 667.82 582.27 667.046 L 581.97 584.246 C 581.967 583.472 582.593 582.842 583.366 582.84 Z" style="fill:none;stroke:#000000;stroke-width:0.6;stroke-linecap:square;stroke-miterlimit:3;"/><path d="M 582.491 527.922 L 585.339 527.912 C 586.37 527.908 587.209 528.742 587.213 529.773 L 587.575 629.609 C 587.579 630.639 586.745 631.479 585.714 631.483 L 582.866 631.493 C 581.836 631.497 580.996 630.663 580.992 629.632 L 580.63 529.797 C 580.627 528.766 581.46 527.926 582.491 527.922 Z" style="stroke:none;fill:#00949D;stroke-linecap:square;stroke-miterlimit:3;"/><path d="M 582.491 527.922 L 585.339 527.912 C 586.37 527.908 587.209 528.742 587.213 529.773 L 587.575 629.609 C 587.579 630.639 586.745 631.479 585.714 631.483 L 582.866 631.493 C 581.836 631.497 580.996 630.663 580.992 629.632 L 580.63 529.797 C 580.627 528.766 581.46 527.926 582.491 527.922 Z" style="fill:none;stroke:#000000;stroke-width:0.6;stroke-linecap:square;stroke-miterlimit:3;"/><g id="Group"><path d="M 645.627 617.627 L 647.054 616.739 C 647.711 616.33 648.576 616.532 648.984 617.188 L 692.733 687.488 C 693.141 688.145 692.94 689.01 692.284 689.418 L 690.856 690.306 C 690.2 690.715 689.335 690.514 688.927 689.857 L 645.178 619.557 C 644.769 618.9 644.971 618.036 645.627 617.627 Z" style="stroke:none;fill:#00949D;stroke-linecap:square;stroke-miterlimit:3;"/><path d="M 645.627 617.627 L 647.054 616.739 C 647.711 616.33 648.576 616.532 648.984 617.188 L 692.733 687.488 C 693.141 688.145 692.94 689.01 692.284 689.418 L 690.856 690.306 C 690.2 690.715 689.335 690.514 688.927 689.857 L 645.178 619.557 C 644.769 618.9 644.971 618.036 645.627 617.627 Z" style="fill:none;stroke:#000000;stroke-width:0.6;stroke-linecap:square;stroke-miterlimit:3;"/><path d="M 591.926 531.816 L 593.915 530.578 C 594.908 529.96 596.217 530.265 596.835 531.258 L 665.141 641.02 C 665.76 642.014 665.455 643.322 664.461 643.941 L 662.473 645.178 C 661.479 645.796 660.171 645.492 659.552 644.498 L 591.247 534.736 C 590.628 533.743 590.933 532.434 591.926 531.816 Z" style="stroke:none;fill:#00949D;stroke-linecap:square;stroke-miterlimit:3;"/><path d="M 591.926 531.816 L 593.915 530.578 C 594.908 529.96 596.217 530.265 596.835 531.258 L 665.141 641.02 C 665.76 642.014 665.455 643.322 664.461 643.941 L 662.473 645.178 C 661.479 645.796 660.171 645.492 659.552 644.498 L 591.247 534.736 C 590.628 533.743 590.933 532.434 591.926 531.816 Z" style="fill:none;stroke:#000000;stroke-width:0.6;stroke-linecap:square;stroke-miterlimit:3;"/><path d=" M 588.994 530.71 C 588.994 528.855 590.5 527.349 592.354 527.349 C 594.209 527.349 595.715 528.855 595.715 530.71 C 595.715 532.565 594.209 534.071 592.354 534.071 C 590.5 534.071 588.994 532.565 588.994 530.71 Z " fill="rgb(0,148,157)" vector-effect="non-scaling-stroke" stroke-width="0.6" stroke="rgb(0,0,0)" stroke-linejoin="miter" stroke-linecap="square" stroke-miterlimit="3"/></g><g id="Group"><path d="M 523.299 617.627 L 521.872 616.739 C 521.215 616.33 520.35 616.532 519.942 617.188 L 476.193 687.488 C 475.785 688.145 475.986 689.01 476.642 689.418 L 478.07 690.306 C 478.726 690.715 479.591 690.514 479.999 689.857 L 523.748 619.557 C 524.157 618.9 523.955 618.036 523.299 617.627 Z" style="stroke:none;fill:#00949D;stroke-linecap:square;stroke-miterlimit:3;"/><path d="M 523.299 617.627 L 521.872 616.739 C 521.215 616.33 520.35 616.532 519.942 617.188 L 476.193 687.488 C 475.785 688.145 475.986 689.01 476.642 689.418 L 478.07 690.306 C 478.726 690.715 479.591 690.514 479.999 689.857 L 523.748 619.557 C 524.157 618.9 523.955 618.036 523.299 617.627 Z" style="fill:none;stroke:#000000;stroke-width:0.6;stroke-linecap:square;stroke-miterlimit:3;"/><path d="M 577 531.816 L 575.011 530.578 C 574.018 529.96 572.709 530.265 572.091 531.258 L 503.785 641.02 C 503.166 642.014 503.471 643.322 504.465 643.941 L 506.453 645.178 C 507.447 645.796 508.755 645.492 509.374 644.498 L 577.679 534.736 C 578.298 533.743 577.993 532.434 577 531.816 Z" style="stroke:none;fill:#00949D;stroke-linecap:square;stroke-miterlimit:3;"/><path d="M 577 531.816 L 575.011 530.578 C 574.018 529.96 572.709 530.265 572.091 531.258 L 503.785 641.02 C 503.166 642.014 503.471 643.322 504.465 643.941 L 506.453 645.178 C 507.447 645.796 508.755 645.492 509.374 644.498 L 577.679 534.736 C 578.298 533.743 577.993 532.434 577 531.816 Z" style="fill:none;stroke:#000000;stroke-width:0.6;stroke-linecap:square;stroke-miterlimit:3;"/><path d=" M 579.932 530.71 C 579.932 528.855 578.426 527.349 576.572 527.349 C 574.717 527.349 573.211 528.855 573.211 530.71 C 573.211 532.565 574.717 534.071 576.572 534.071 C 578.426 534.071 579.932 532.565 579.932 530.71 Z " fill="rgb(0,148,157)" vector-effect="non-scaling-stroke" stroke-width="0.6" stroke="rgb(0,0,0)" stroke-linejoin="miter" stroke-linecap="square" stroke-miterlimit="3"/></g><path d="M 575.536 652.885 L 576.091 651.298 C 576.346 650.568 577.146 650.183 577.876 650.438 L 656.043 677.75 C 656.773 678.005 657.158 678.805 656.903 679.535 L 656.349 681.122 C 656.094 681.852 655.294 682.238 654.564 681.982 L 576.397 654.67 C 575.667 654.415 575.281 653.615 575.536 652.885 Z" style="stroke:none;fill:#FFFFFF;stroke-linecap:square;stroke-miterlimit:3;"/><path d="M 575.536 652.885 L 576.091 651.298 C 576.346 650.568 577.146 650.183 577.876 650.438 L 656.043 677.75 C 656.773 678.005 657.158 678.805 656.903 679.535 L 656.349 681.122 C 656.094 681.852 655.294 682.238 654.564 681.982 L 576.397 654.67 C 575.667 654.415 575.281 653.615 575.536 652.885 Z" style="fill:none;stroke:#000000;stroke-width:0.6;stroke-linecap:square;stroke-miterlimit:3;"/><path d="M 566.126 650.359 L 569.321 650.359 C 569.676 650.359 569.965 650.648 569.965 651.003 L 569.965 667.799 C 569.965 668.154 569.676 668.442 569.321 668.442 L 566.126 668.442 C 565.77 668.442 565.482 668.154 565.482 667.799 L 565.482 651.003 C 565.482 650.648 565.77 650.359 566.126 650.359 Z" style="stroke:none;fill:#FFFFFF;stroke-linecap:square;stroke-miterlimit:3;"/><path d="M 566.126 650.359 L 569.321 650.359 C 569.676 650.359 569.965 650.648 569.965 651.003 L 569.965 667.799 C 569.965 668.154 569.676 668.442 569.321 668.442 L 566.126 668.442 C 565.77 668.442 565.482 668.154 565.482 667.799 L 565.482 651.003 C 565.482 650.648 565.77 650.359 566.126 650.359 Z" style="fill:none;stroke:#000000;stroke-width:0.6;stroke-linecap:square;stroke-miterlimit:3;"/><path d="M 578.011 524.296 L 590.711 524.296 C 591.419 524.296 591.994 524.871 591.994 525.579 L 591.994 535.226 C 591.994 535.933 591.419 536.508 590.711 536.508 L 578.011 536.508 C 577.304 536.508 576.729 535.933 576.729 535.226 L 576.729 525.579 C 576.729 524.871 577.304 524.296 578.011 524.296 Z" style="stroke:none;fill:#00949D;stroke-linecap:square;stroke-miterlimit:3;"/><path d="M 578.011 524.296 L 590.711 524.296 C 591.419 524.296 591.994 524.871 591.994 525.579 L 591.994 535.226 C 591.994 535.933 591.419 536.508 590.711 536.508 L 578.011 536.508 C 577.304 536.508 576.729 535.933 576.729 535.226 L 576.729 525.579 C 576.729 524.871 577.304 524.296 578.011 524.296 Z" style="fill:none;stroke:#000000;stroke-width:0.6;stroke-linecap:square;stroke-miterlimit:3;"/><path d=" M 577.593 657.584 L 572.723 657.584 L 567.853 657.584 C 564.142 657.584 562.635 654.974 564.491 651.76 L 566.926 647.542 L 569.361 643.325 C 571.216 640.111 574.23 640.111 576.086 643.325 L 578.521 647.542 L 580.955 651.76 C 582.811 654.974 581.305 657.584 577.593 657.584 Z " fill="rgb(255,255,255)" vector-effect="non-scaling-stroke" stroke-width="0.6" stroke="rgb(0,0,0)" stroke-linejoin="miter" stroke-linecap="square" stroke-miterlimit="3"/><path d=" M 576.553 461.956 C 578.168 471.865 578.178 481.532 576.553 490.927 L 568.861 490.927 C 566.979 481 566.989 471.353 568.861 461.956 L 576.553 461.956 Z " fill="rgb(237,140,1)" vector-effect="non-scaling-stroke" stroke-width="0.6" stroke="rgb(0,0,0)" stroke-linejoin="miter" stroke-linecap="square" stroke-miterlimit="3"/><path d=" M 552.745 657.874 L 566.893 648.427 L 619.166 648.427 L 631.242 657.874 L 552.745 657.874 Z " fill="rgb(255,255,255)" vector-effect="non-scaling-stroke" stroke-width="0.6" stroke="rgb(0,0,0)" stroke-linejoin="miter" stroke-linecap="square" stroke-miterlimit="3"/><g id="Group"><path d="M 554.698 657.584 L 628.966 657.584 C 631.361 657.584 633.306 659.528 633.306 661.924 L 633.306 687.961 C 633.306 690.356 631.361 692.301 628.966 692.301 L 554.698 692.301 C 552.303 692.301 550.358 690.356 550.358 687.961 L 550.358 661.924 C 550.358 659.528 552.303 657.584 554.698 657.584 Z" style="stroke:none;fill:#FFFFFF;stroke-linecap:square;stroke-miterlimit:3;"/><path d="M 554.698 657.584 L 628.966 657.584 C 631.361 657.584 633.306 659.528 633.306 661.924 L 633.306 687.961 C 633.306 690.356 631.361 692.301 628.966 692.301 L 554.698 692.301 C 552.303 692.301 550.358 690.356 550.358 687.961 L 550.358 661.924 C 550.358 659.528 552.303 657.584 554.698 657.584 Z" style="fill:none;stroke:#000000;stroke-width:1;stroke-linecap:square;stroke-miterlimit:3;"/><path d=" M 550.358 673.643 L 633.306 673.643 L 633.306 674.765 L 550.358 674.765 L 550.358 673.643 Z " fill="rgb(255,255,255)" vector-effect="non-scaling-stroke" stroke-width="0.6" stroke="rgb(0,0,0)" stroke-linejoin="miter" stroke-linecap="square" stroke-miterlimit="3"/><path d="M 579.203 668.442 L 585.246 668.442 C 585.495 668.442 585.697 668.645 585.697 668.894 L 585.697 671.102 C 585.697 671.351 585.495 671.554 585.246 671.554 L 579.203 671.554 C 578.954 671.554 578.752 671.351 578.752 671.102 L 578.752 668.894 C 578.752 668.645 578.954 668.442 579.203 668.442 Z" style="stroke:none;fill:#EBEBEB;stroke-linecap:square;stroke-miterlimit:3;"/><path d="M 579.203 668.442 L 585.246 668.442 C 585.495 668.442 585.697 668.645 585.697 668.894 L 585.697 671.102 C 585.697 671.351 585.495 671.554 585.246 671.554 L 579.203 671.554 C 578.954 671.554 578.752 671.351 578.752 671.102 L 578.752 668.894 C 578.752 668.645 578.954 668.442 579.203 668.442 Z" style="fill:none;stroke:#000000;stroke-width:0.6;stroke-linecap:square;stroke-miterlimit:3;"/><path d="M 598.418 668.442 L 604.461 668.442 C 604.71 668.442 604.912 668.645 604.912 668.894 L 604.912 671.102 C 604.912 671.351 604.71 671.554 604.461 671.554 L 598.418 671.554 C 598.169 671.554 597.967 671.351 597.967 671.102 L 597.967 668.894 C 597.967 668.645 598.169 668.442 598.418 668.442 Z" style="stroke:none;fill:#EBEBEB;stroke-linecap:square;stroke-miterlimit:3;"/><path d="M 598.418 668.442 L 604.461 668.442 C 604.71 668.442 604.912 668.645 604.912 668.894 L 604.912 671.102 C 604.912 671.351 604.71 671.554 604.461 671.554 L 598.418 671.554 C 598.169 671.554 597.967 671.351 597.967 671.102 L 597.967 668.894 C 597.967 668.645 598.169 668.442 598.418 668.442 Z" style="fill:none;stroke:#000000;stroke-width:0.6;stroke-linecap:square;stroke-miterlimit:3;"/><path d=" M 580.604 668.448 L 580.604 678.207 L 603.06 678.207 L 603.06 668.443 L 599.709 668.443 L 599.709 673.643 L 583.457 673.643 L 583.457 668.448 L 580.604 668.448 Z " fill="rgb(255,255,255)" vector-effect="non-scaling-stroke" stroke-width="0.6" stroke="rgb(0,0,0)" stroke-linejoin="miter" stroke-linecap="square" stroke-miterlimit="3"/></g><g id="Group"><path d="M 569.352 647.265 L 619.317 647.265 C 619.811 647.265 620.212 647.666 620.212 648.16 L 620.212 653.594 C 620.212 654.088 619.811 654.489 619.317 654.489 L 569.352 654.489 C 568.858 654.489 568.457 654.088 568.457 653.594 L 568.457 648.16 C 568.457 647.666 568.858 647.265 569.352 647.265 Z" style="stroke:none;fill:#ED8C01;stroke-linecap:square;stroke-miterlimit:3;"/><path d="M 569.352 647.265 L 619.317 647.265 C 619.811 647.265 620.212 647.666 620.212 648.16 L 620.212 653.594 C 620.212 654.088 619.811 654.489 619.317 654.489 L 569.352 654.489 C 568.858 654.489 568.457 654.088 568.457 653.594 L 568.457 648.16 C 568.457 647.666 568.858 647.265 569.352 647.265 Z" style="fill:none;stroke:#000000;stroke-width:0.6;stroke-linecap:square;stroke-miterlimit:3;"/><path d=" M 572.534 650.877 C 572.534 650.032 573.22 649.346 574.065 649.346 C 574.91 649.346 575.597 650.032 575.597 650.877 C 575.597 651.722 574.91 652.409 574.065 652.409 C 573.22 652.409 572.534 651.722 572.534 650.877 Z " fill="rgb(255,255,255)" vector-effect="non-scaling-stroke" stroke-width="0.6" stroke="rgb(0,0,0)" stroke-linejoin="miter" stroke-linecap="square" stroke-miterlimit="3"/><path d=" M 577.148 650.877 C 577.148 650.032 577.834 649.346 578.679 649.346 C 579.525 649.346 580.211 650.032 580.211 650.877 C 580.211 651.722 579.525 652.409 578.679 652.409 C 577.834 652.409 577.148 651.722 577.148 650.877 Z " fill="rgb(255,255,255)" vector-effect="non-scaling-stroke" stroke-width="0.6" stroke="rgb(0,0,0)" stroke-linejoin="miter" stroke-linecap="square" stroke-miterlimit="3"/><path d=" M 581.762 650.877 C 581.762 650.032 582.448 649.346 583.293 649.346 C 584.139 649.346 584.825 650.032 584.825 650.877 C 584.825 651.722 584.139 652.409 583.293 652.409 C 582.448 652.409 581.762 651.722 581.762 650.877 Z " fill="rgb(255,255,255)" vector-effect="non-scaling-stroke" stroke-width="0.6" stroke="rgb(0,0,0)" stroke-linejoin="miter" stroke-linecap="square" stroke-miterlimit="3"/><path d=" M 586.376 650.877 C 586.376 650.032 587.062 649.346 587.908 649.346 C 588.753 649.346 589.439 650.032 589.439 650.877 C 589.439 651.722 588.753 652.409 587.908 652.409 C 587.062 652.409 586.376 651.722 586.376 650.877 Z " fill="rgb(255,255,255)" vector-effect="non-scaling-stroke" stroke-width="0.6" stroke="rgb(0,0,0)" stroke-linejoin="miter" stroke-linecap="square" stroke-miterlimit="3"/><path d=" M 590.99 650.877 C 590.99 650.032 591.677 649.346 592.522 649.346 C 593.367 649.346 594.053 650.032 594.053 650.877 C 594.053 651.722 593.367 652.409 592.522 652.409 C 591.677 652.409 590.99 651.722 590.99 650.877 Z " fill="rgb(255,255,255)" vector-effect="non-scaling-stroke" stroke-width="0.6" stroke="rgb(0,0,0)" stroke-linejoin="miter" stroke-linecap="square" stroke-miterlimit="3"/><path d=" M 595.604 650.877 C 595.604 650.032 596.291 649.346 597.136 649.346 C 597.981 649.346 598.668 650.032 598.668 650.877 C 598.668 651.722 597.981 652.409 597.136 652.409 C 596.291 652.409 595.604 651.722 595.604 650.877 Z " fill="rgb(255,255,255)" vector-effect="non-scaling-stroke" stroke-width="0.6" stroke="rgb(0,0,0)" stroke-linejoin="miter" stroke-linecap="square" stroke-miterlimit="3"/></g><g id="Group"><path d="M 545.43 645.435 L 634.904 645.435 C 635.144 645.435 635.34 645.631 635.34 645.871 L 635.34 647.461 C 635.34 647.701 635.144 647.897 634.904 647.897 L 545.43 647.897 C 545.189 647.897 544.994 647.701 544.994 647.461 L 544.994 645.871 C 544.994 645.631 545.189 645.435 545.43 645.435 Z" style="stroke:none;fill:#FFFFFF;stroke-linecap:square;stroke-miterlimit:3;"/><path d="M 545.43 645.435 L 634.904 645.435 C 635.144 645.435 635.34 645.631 635.34 645.871 L 635.34 647.461 C 635.34 647.701 635.144 647.897 634.904 647.897 L 545.43 647.897 C 545.189 647.897 544.994 647.701 544.994 647.461 L 544.994 645.871 C 544.994 645.631 545.189 645.435 545.43 645.435 Z" style="fill:none;stroke:#000000;stroke-width:0.7977225657302949;stroke-linecap:square;stroke-miterlimit:3;"/><rect x="556.456" y="597.14" width="67.406" height="37.603" transform="matrix(1,0,0,1,0,0)" fill="rgb(255,255,255)" vector-effect="non-scaling-stroke" stroke-width="0.835" stroke="rgb(0,0,0)" stroke-linejoin="miter" stroke-linecap="square" stroke-miterlimit="3"/><path d=" M 634.819 645.334 L 623.862 634.743 L 556.456 634.743 L 545.417 645.435 L 634.819 645.334 Z " fill="rgb(255,255,255)" vector-effect="non-scaling-stroke" stroke-width="0.798" stroke="rgb(0,0,0)" stroke-linejoin="miter" stroke-linecap="square" stroke-miterlimit="3"/><path d="M 559.017 598.738 L 621.197 598.738 C 621.864 598.738 622.406 599.28 622.406 599.947 L 622.406 632.053 C 622.406 632.72 621.864 633.261 621.197 633.261 L 559.017 633.261 C 558.35 633.261 557.808 632.72 557.808 632.053 L 557.808 599.947 C 557.808 599.28 558.35 598.738 559.017 598.738 Z" style="stroke:none;fill:#ED8C01;stroke-linecap:square;stroke-miterlimit:3;"/><path d="M 559.017 598.738 L 621.197 598.738 C 621.864 598.738 622.406 599.28 622.406 599.947 L 622.406 632.053 C 622.406 632.72 621.864 633.261 621.197 633.261 L 559.017 633.261 C 558.35 633.261 557.808 632.72 557.808 632.053 L 557.808 599.947 C 557.808 599.28 558.35 598.738 559.017 598.738 Z" style="fill:none;stroke:#000000;stroke-width:0.8353499532737573;stroke-linecap:square;stroke-miterlimit:3;"/></g><path d=" M 555.731 373.248 Q 556.192 377.864 559.423 379.941 C 562.654 382.018 564.274 378.787 566.926 378.325 C 569.577 377.864 575.221 379.941 576.553 385.479 C 577.885 391.018 577.34 395.402 575.074 405.095 C 572.808 414.787 568.606 417.293 568.861 433.117 C 569.115 448.941 576.119 450.562 576.729 461.956 C 577.208 470.9 565.641 496.193 566.926 516.095 Q 567.487 524.788 569.658 534.506" fill="none" vector-effect="non-scaling-stroke" stroke-width="1" stroke="rgb(0,0,0)" stroke-linejoin="miter" stroke-linecap="square" stroke-miterlimit="3"/><rect x="571.043" y="374.482" width="3.273" height="10.837" transform="matrix(1,0,0,1,0,0)" fill="rgb(237,140,1)"/><rect x="571.043" y="443.203" width="3.273" height="10.837" transform="matrix(1,0,0,1,0,0)" fill="rgb(237,140,1)"/><path d=" M 575.711 551.721 Q 578.151 561.822 577.831 571.941 Q 577.512 582.059 572.723 596.757" fill="none" vector-effect="non-scaling-stroke" stroke-width="1" stroke="rgb(0,0,0)" stroke-linejoin="miter" stroke-linecap="square" stroke-miterlimit="3"/><path d=" M 550.209 666.757 Q 547.759 667.12 546.216 670.024 C 544.673 672.928 544.219 680.188 543.947 681.731 C 543.675 683.274 543.04 686.45 539.137 687.449 C 535.235 688.447 527.702 689.082 523.8 688.538 C 519.897 687.993 518.808 687.388 518.627 686.239 C 518.445 685.089 519.353 684.091 521.35 683.546 C 523.346 683.002 532.966 681.161 539.046 682.445 C 545.127 683.728 538.774 685.543 537.594 685.724 C 536.415 685.906 529.245 686.753 526.613 686.239 C 523.981 685.724 522.711 685.906 521.077 684.454 C 519.444 683.002 519.534 681.822 520.987 681.368 C 522.439 680.914 525.343 680.188 528.61 680.37 C 531.877 680.551 534.599 681.277 536.233 681.822 C 537.867 682.366 541.315 681.005 542.314 680.461 C 543.312 679.916 546.307 677.466 546.942 676.921 Q 547.577 676.377 550.209 672.747" fill="none" vector-effect="non-scaling-stroke" stroke-width="1" stroke="rgb(0,0,0)" stroke-linejoin="miter" stroke-linecap="square" stroke-miterlimit="3"/><path d=" M 552.745 638.137 L 550.209 638.137 Q 547.519 637.887 546.644 640.262 C 545.769 642.637 544.894 645.573 543.269 647.542 C 541.644 649.512 541.394 653.654 544.394 654.208 C 547.394 654.762 552.269 652.637 553.894 651.137 C 555.519 649.637 557.394 648.716 560.269 648.427" fill="none" vector-effect="non-scaling-stroke" stroke-width="1" stroke="rgb(0,0,0)" stroke-linejoin="miter" stroke-linecap="square" stroke-miterlimit="3"/><path d=" M 820.459 86.474 Q 831.689 90.853 835.617 92.599 C 839.545 94.345 843.637 96.254 844.891 97.018 C 846.146 97.782 846.746 97.891 848.056 100.182 Q 849.365 102.473 856.239 113.221 Q 857.384 114.748 858.148 114.966 C 858.912 115.185 859.403 115.185 860.112 114.639 C 860.821 114.093 862.185 112.675 863.004 112.239 C 863.822 111.802 864.911 111.463 866.222 111.773 C 867.534 112.082 867.936 112.393 868.202 112.866 C 868.65 113.663 869.266 113.939 869.975 114.048 C 870.684 114.157 871.43 114.401 871.6 115.082 C 871.807 115.91 871.679 116.751 871.453 117.003 C 871.226 117.255 871.145 117.334 870.566 116.855 C 869.987 116.377 869.663 116.167 868.883 116.443 C 868.102 116.72 866.39 117.451 866.315 117.702 C 866.239 117.954 866.063 121.379 866.214 122.084 C 866.365 122.789 867.12 123.217 868.707 124.224 C 870.293 125.231 873.914 127.105 875.36 127.841 C 876.806 128.578 879.724 129.996 880.734 130.405 C 881.743 130.814 882.07 130.787 882.752 131.987 C 883.434 133.188 885.828 137.972 887.465 141.748 C 889.102 145.525 889.932 147.086 891.645 151.417 Q 893.357 155.748 892.677 155.219 Q 883.386 146.734 883.109 146.331 Q 882.832 145.928 878.199 137.72 Q 877.821 137.267 877.041 137.015 Q 876.26 136.763 859.491 130.896 Q 858.559 130.519 857.905 130.896 C 857.25 131.274 856.495 132.256 855.739 132.457 C 854.984 132.659 850.25 134.169 849.797 134.446 C 849.344 134.723 848.563 135.252 848.261 136.083 C 847.959 136.914 847.808 137.267 846.902 137.443 C 845.995 137.619 845.045 137.72 844.261 138.223 C 843.477 138.727 843.105 139.093 842.9 139.107 C 842.696 139.12 842.177 138.125 841.891 138.125 C 841.605 138.125 841.059 138.466 840.854 138.138 C 840.65 137.811 840.322 137.197 840.432 136.965 C 840.541 136.734 842.068 136.011 842.164 135.82 C 842.259 135.629 841.823 133.76 842 133.46 C 842.177 133.16 843.645 132.657 844.261 131.953 C 844.877 131.249 845.597 131.201 846.862 128.56 C 848.126 125.919 848.942 124.527 849.269 124.077 C 849.597 123.627 849.924 123.109 849.938 122.113 C 849.951 121.117 849.733 120.967 849.242 120.094 Q 848.751 119.222 844.261 110.499 Q 841.258 104.563 840.914 103.898 C 840.571 103.233 840.614 102.353 839.713 101.924 C 838.812 101.495 834.505 99.668 832.072 98.34 C 829.639 97.011 826.836 95.202 825.605 94.04 C 824.374 92.879 823.334 92.064 822.241 90.208 Q 821.149 88.353 820.459 86.474 Z " fill="rgb(0,148,157)" vector-effect="non-scaling-stroke" stroke-width="1" stroke="rgb(0,148,157)" stroke-linejoin="miter" stroke-linecap="square" stroke-miterlimit="3"/><path d=" M 948.194 96.682 Q 951.061 101.659 951.277 102.686 C 951.494 103.714 952.63 111.071 952.954 116.696 C 953.279 122.322 953.766 127.028 953.712 132.491 C 953.658 137.955 953.712 142.39 953.387 144.5 C 953.063 146.61 952.869 148.212 952.605 148.945 C 952.341 149.677 952.341 150.351 951.96 151.083 C 951.579 151.816 951.023 152.255 950.613 153.281 C 950.202 154.306 948.559 157.566 946.852 161.95 C 945.145 166.334 944.041 169.379 943.673 170.918 C 943.305 172.457 942.87 174.599 942.803 176.439 C 942.736 178.28 942.736 179.384 942.87 181.057 C 943.004 182.73 943.171 183.734 944.108 184.805 C 945.045 185.876 946.383 187.214 947.287 187.616 C 948.19 188.018 948.793 188.218 949.964 188.486 C 951.135 188.754 951.704 189.122 952.106 189.657 C 952.507 190.193 952.825 190.778 953.009 191.715 C 953.193 192.652 953.796 193.204 954.398 193.556 C 955 193.907 956.038 194.175 956.573 194.61 C 957.108 195.045 957.66 195.396 958.162 196.383 Q 958.664 197.371 958.781 198.023 Q 955.686 197.053 954.9 196.818 C 954.113 196.584 952.49 196.316 951.269 197.136 C 950.048 197.956 949.397 198.505 947.799 199.167 C 946.201 199.828 942.069 200.715 940.933 201.151 C 939.797 201.588 937.47 202.271 935.009 203.447 C 932.548 204.624 931.52 205.056 930.087 205.273 C 928.653 205.489 925.942 205.538 923.7 205.347 C 921.459 205.157 915.437 205.323 910.417 205.663 Q 905.396 206.004 897.709 207.082 L 896.042 207.384 L 893.741 206.796 Q 897.947 206.035 900.804 204.812 C 903.66 203.59 905.708 201.845 906.993 200.924 Q 908.279 200.004 912.713 196.293 Q 909.32 195.908 907.697 195.564 C 906.074 195.219 902.163 194.358 900.466 193.891 C 898.769 193.424 895.546 192.538 895.227 192.366 C 894.908 192.194 894.659 192.039 893.061 192.076 C 891.464 192.114 883.356 192.167 882.503 192.167 C 881.649 192.167 877.658 192.155 873.776 191.926 C 869.895 191.696 866.615 191.275 865.624 191.081 C 864.633 190.887 862.006 190.241 860.24 189.53 Q 858.474 188.82 861.941 189.423 Q 865.452 189.918 870.017 189.746 C 874.583 189.574 878.481 189.006 881.952 188.506 Q 885.422 188.007 895.808 186.484 Q 904.055 185.344 906.164 185.143 C 908.274 184.942 909.856 185.095 912.468 185.458 Q 915.08 185.821 919.873 186.932 Q 922.229 187.875 923.054 186.166 C 923.879 184.458 924.393 179.796 924.669 177.796 C 924.946 175.797 926.088 171.042 927.019 166.124 C 927.95 161.205 930.01 156.353 931.207 153.229 Q 932.403 150.105 937.894 136.314 Q 938.402 135.266 938.91 132.759 C 939.417 130.251 940.805 121.975 941.866 114.514 Q 942.926 107.052 944.536 96.129 Q 944.733 95.113 945.989 95.113 Q 947.246 95.113 948.194 96.682 Z " fill="rgb(0,148,157)" vector-effect="non-scaling-stroke" stroke-width="1" stroke="rgb(0,148,157)" stroke-linejoin="miter" stroke-linecap="square" stroke-miterlimit="3"/><path d=" M 289.709 331.021 Q 290.302 332.542 289.669 334.484 C 289.035 336.427 284.844 347.683 282.833 352.515 Q 280.822 357.346 275.595 369 Q 274.171 371.356 273.794 373.738 C 273.418 376.12 273.779 377.63 274.31 379.662 Q 274.842 381.694 279.039 392.454 L 279.94 394.583 Q 280.269 395.734 281.369 395.747 C 282.47 395.759 300.759 394.877 301.629 394.868 C 302.499 394.86 313.649 394.14 314.676 393.53 Q 315.703 392.92 314.1 395.575 Q 310.191 396.049 306.195 396.854 C 302.198 397.659 299.611 398.203 297.587 398.855 Q 295.563 399.508 295.067 400.048 Q 293.359 401.295 294.399 402.593 Q 295.439 403.891 299.512 406.102 Q 304.098 408.725 307.223 410.289 C 310.349 411.853 314.184 413.665 315.032 413.98 C 315.88 414.295 315.945 414.282 316.018 414.952 C 316.09 415.622 316.317 415.945 315.629 415.652 C 314.941 415.359 310.211 413.352 306.859 412.103 C 303.508 410.854 297.523 408.559 295.103 407.895 C 292.682 407.231 291.559 406.966 289.496 406.872 Q 287.433 406.779 285.194 406.788 Q 284.157 406.759 284.273 407.772 C 284.39 408.785 284.646 412.11 285.404 413.801 C 286.161 415.492 285.75 414.911 286.839 415.615 Q 287.928 416.319 302.275 424.49 L 322.631 435.682 Q 323.478 436.08 326.999 437.212 Q 330.52 438.343 336.173 440.251 L 331.609 440.583 Q 328.545 440.89 326.839 440.734 C 325.133 440.577 324.996 440.561 322.514 439.95 Q 320.033 439.339 304.957 434.923 Q 291.441 430.83 283.244 427.717 C 275.046 424.604 269.964 422.364 267.71 420.583 C 265.456 418.801 262.394 416.273 260.94 414.248 C 259.486 412.224 259.483 411.882 259.459 411.379 C 259.436 410.877 259.858 410.156 259.082 409.922 C 258.305 409.689 255.749 409.089 253.805 407.989 C 251.86 406.89 250.276 405.993 248.324 403.701 C 246.372 401.408 245.824 400.677 245.169 399.077 Q 244.513 397.477 243.988 395.838 L 241.464 392.613 L 245.233 391.54 Q 246.006 391.161 246.448 390.788 C 246.889 390.415 248.684 390.12 250.119 390.443 C 251.553 390.766 251.73 390.745 252.601 390.993 C 253.472 391.241 254.544 391.552 254.937 391.744 C 255.331 391.935 256.043 392.339 256.018 391.682 C 255.993 391.025 255.741 390.301 255.674 388.965 C 255.608 387.629 255.727 386.677 256.015 385.258 C 256.303 383.838 256.87 381.516 258.208 378.141 Q 259.547 374.766 263.828 365.816 Q 266.074 361.279 267.302 358.996 Q 268.53 356.714 274.256 347.652 Q 277.95 342.294 281.822 337.355 Q 285.693 332.416 289.183 329.696 L 289.709 331.021 Z " fill="rgb(237,140,1)" vector-effect="non-scaling-stroke" stroke-width="1" stroke="rgb(237,140,1)" stroke-linejoin="miter" stroke-linecap="square" stroke-miterlimit="3"/><linearGradient id="_lgradient_59" x1="0%" y1="50%" x2="100%" y2="50%"><stop offset="68.26086956521739%" stop-opacity="1" style="stop-color:rgb(237,140,1)"/><stop offset="100%" stop-opacity="0" style="stop-color:rgb(231,136,1)"/></linearGradient><path d=" M 301.75 268.75 L 348.169 403.226 L 372.644 328.026 L 455.661 463.527 L 550.202 493.828" fill="none" vector-effect="non-scaling-stroke" stroke-width="1.5" stroke="url(#_lgradient_59)" stroke-linejoin="round" stroke-linecap="round" stroke-miterlimit="3"/><linearGradient id="_lgradient_60" x1="0%" y1="50%" x2="100%" y2="50%"><stop offset="44.78260869565218%" stop-opacity="1" style="stop-color:rgb(237,140,1)"/><stop offset="100%" stop-opacity="0" style="stop-color:rgb(229,136,1)"/></linearGradient><path d=" M 348.038 402.762 L 437.793 484.035 L 550.202 497.352" fill="none" vector-effect="non-scaling-stroke" stroke-width="1.5" stroke="url(#_lgradient_60)" stroke-linejoin="round" stroke-linecap="round" stroke-miterlimit="3"/><linearGradient id="_lgradient_61" x1="0%" y1="50%" x2="100%" y2="50%"><stop offset="93.04347826086956%" stop-opacity="1" style="stop-color:rgb(237,140,1)"/><stop offset="100%" stop-opacity="0.83" style="stop-color:rgb(229,136,1)"/></linearGradient><path d=" M 301.75 268.75 L 372.781 328.26 L 506.083 362.823 L 455.762 463.567 L 438.065 483.986" fill="none" vector-effect="non-scaling-stroke" stroke-width="1.5" stroke="url(#_lgradient_61)" stroke-linejoin="round" stroke-linecap="round" stroke-miterlimit="3"/><linearGradient id="_lgradient_62" x1="0%" y1="50%" x2="100%" y2="50%"><stop offset="58.69565217391305%" stop-opacity="1" style="stop-color:rgb(237,140,1)"/><stop offset="100%" stop-opacity="0" style="stop-color:rgb(229,136,1)"/></linearGradient><path d=" M 348.157 402.944 L 455.888 463.762 L 550.718 447.846" fill="none" vector-effect="non-scaling-stroke" stroke-width="1.5" stroke="url(#_lgradient_62)" stroke-linejoin="round" stroke-linecap="round" stroke-miterlimit="3"/><linearGradient id="_lgradient_63" x1="0%" y1="50%" x2="100%" y2="50%"><stop offset="0%" stop-opacity="1" style="stop-color:rgb(237,140,1)"/><stop offset="71.30434782608695%" stop-opacity="1" style="stop-color:rgb(237,140,1)"/><stop offset="100%" stop-opacity="0" style="stop-color:rgb(231,136,1)"/></linearGradient><path d=" M 301.75 268.75 L 368.748 188.728 L 372.603 328.062 L 480.243 219.993 L 506.083 362.895 L 550.338 393.16" fill="none" vector-effect="non-scaling-stroke" stroke-width="1.5" stroke="url(#_lgradient_63)" stroke-linejoin="round" stroke-linecap="round" stroke-miterlimit="3"/><linearGradient id="_lgradient_64" x1="0%" y1="50%" x2="100%" y2="50%"><stop offset="49.130434782608695%" stop-opacity="1" style="stop-color:rgb(237,140,1)"/><stop offset="100%" stop-opacity="0" style="stop-color:rgb(213,126,1)"/></linearGradient><path d=" M 301.663 268.811 L 365.965 118.97 L 368.734 188.627 L 480.273 219.933 L 550.575 250.184" fill="none" vector-effect="non-scaling-stroke" stroke-width="1.5" stroke="url(#_lgradient_64)" stroke-linejoin="round" stroke-linecap="round" stroke-miterlimit="3"/><linearGradient id="_lgradient_65" x1="0%" y1="50%" x2="100%" y2="50%"><stop offset="61.30434782608696%" stop-opacity="1" style="stop-color:rgb(237,140,1)"/><stop offset="100%" stop-opacity="0" style="stop-color:rgb(228,135,1)"/></linearGradient><path d=" M 365.965 118.97 L 474.82 89.12 L 480.084 219.986 L 552.324 175.88" fill="none" vector-effect="non-scaling-stroke" stroke-width="1.5" stroke="url(#_lgradient_65)" stroke-linejoin="round" stroke-linecap="round" stroke-miterlimit="3"/><linearGradient id="_lgradient_66" x1="0%" y1="50%" x2="100%" y2="50%"><stop offset="66.95652173913044%" stop-opacity="1" style="stop-color:rgb(237,140,1)"/><stop offset="100%" stop-opacity="0" style="stop-color:rgb(229,136,1)"/></linearGradient><path d=" M 365.965 118.97 L 495.331 58.808 L 550.69 65.161" fill="none" vector-effect="non-scaling-stroke" stroke-width="1.5" stroke="url(#_lgradient_66)" stroke-linejoin="round" stroke-linecap="round" stroke-miterlimit="3"/><linearGradient id="_lgradient_67" x1="0%" y1="50%" x2="100%" y2="50%"><stop offset="0%" stop-opacity="1" style="stop-color:rgb(237,140,1)"/><stop offset="72.60869565217392%" stop-opacity="1" style="stop-color:rgb(237,140,1)"/><stop offset="100%" stop-opacity="0.74" style="stop-color:rgb(229,136,1)"/></linearGradient><path d=" M 495.331 58.808 L 474.457 89.301 L 368.639 188.585" fill="none" vector-effect="non-scaling-stroke" stroke-width="1.5" stroke="url(#_lgradient_67)" stroke-linejoin="round" stroke-linecap="round" stroke-miterlimit="3"/><linearGradient id="_lgradient_68" x1="0%" y1="50%" x2="100%" y2="50%"><stop offset="0%" stop-opacity="1" style="stop-color:rgb(237,140,1)"/><stop offset="100%" stop-opacity="0" style="stop-color:rgb(227,134,1)"/></linearGradient><path d=" M 550.718 80.407 L 475.002 89.12 L 551.053 125.239" fill="none" vector-effect="non-scaling-stroke" stroke-width="1.5" stroke="url(#_lgradient_68)" stroke-linejoin="round" stroke-linecap="round" stroke-miterlimit="3"/><linearGradient id="_lgradient_69" x1="0%" y1="50%" x2="100%" y2="50%"><stop offset="0%" stop-opacity="1" style="stop-color:rgb(237,140,1)"/><stop offset="100%" stop-opacity="0" style="stop-color:rgb(229,136,1)"/></linearGradient><line x1="506.083" y1="362.823" x2="550.69" y2="333.9" vector-effect="non-scaling-stroke" stroke-width="1.5" stroke="url(#_lgradient_69)" stroke-linejoin="round" stroke-linecap="round" stroke-miterlimit="3"/></g></svg>